<?xml version="1.0" standalone="no"?>
<!DOCTYPE svg PUBLIC "-//W3C//DTD SVG 20010904//EN"
 "http://www.w3.org/TR/2001/REC-SVG-20010904/DTD/svg10.dtd">
<svg version="1.0" xmlns="http://www.w3.org/2000/svg"
 width="7730.000000pt" height="7730.000000pt" viewBox="0 0 7730.000000 7730.000000"
 preserveAspectRatio="xMidYMid meet">

<g transform="translate(0.000000,7730.000000) scale(0.100000,-0.100000)"
fill="#000000" stroke="none">
<path d="M43305 67729 c-950 -62 -1912 -322 -2760 -747 -708 -354 -1294 -780
-1886 -1371 -624 -625 -1114 -1292 -1606 -2191 -404 -738 -790 -1683 -1087
-2666 -491 -1624 -815 -3664 -885 -5574 -16 -437 -22 -849 -13 -957 8 -88 12
-107 36 -137 63 -83 177 -96 256 -30 59 50 63 67 61 289 -5 622 41 1498 124
2360 43 443 51 506 121 1005 224 1597 648 3207 1176 4460 156 371 400 879 571
1190 704 1279 1614 2289 2664 2959 908 579 1986 945 3083 1045 682 63 1374
-10 1983 -208 160 -52 447 -165 447 -176 0 -4 -37 -24 -82 -45 -112 -50 -373
-190 -538 -288 -957 -568 -1804 -1387 -2502 -2422 -1211 -1794 -2004 -4207
-2361 -7187 l-4 -28 179 0 178 0 0 24 c0 28 64 517 85 656 132 845 253 1457
415 2095 497 1961 1216 3543 2164 4760 263 338 692 795 984 1049 357 310 714
566 1102 791 157 91 516 271 678 341 l112 48 36 -18 c20 -9 91 -51 158 -93
949 -594 1781 -1558 2483 -2878 799 -1502 1432 -3479 1852 -5785 218 -1197
389 -2599 457 -3746 7 -126 25 -172 82 -211 40 -26 107 -38 143 -25 23 9 31
28 77 189 l52 178 -20 265 c-44 587 -107 1209 -183 1796 l-13 102 30 -14 c17
-7 76 -30 131 -50 457 -167 836 -511 997 -904 22 -52 49 -105 61 -118 48 -51
148 -53 198 -3 58 59 48 113 -57 320 -170 334 -446 608 -814 808 -96 53 -263
124 -369 157 -88 28 -128 26 -178 -9 -13 -9 -23 -14 -23 -11 0 25 -75 502
-135 861 -392 2336 -955 4263 -1713 5863 -360 759 -835 1528 -1287 2082 -428
525 -920 987 -1392 1307 -79 53 -142 98 -140 99 1 1 85 27 187 57 494 149
1011 249 1450 282 41 3 98 8 125 11 93 9 554 5 692 -6 955 -75 1780 -389 2553
-971 213 -160 353 -282 573 -499 286 -280 465 -486 719 -824 1054 -1404 1884
-3442 2458 -6036 101 -456 258 -1282 321 -1690 12 -80 23 -146 24 -147 4 -6
356 -35 361 -30 13 12 -148 941 -251 1447 -536 2645 -1320 4747 -2335 6259
-1266 1887 -2868 2849 -4755 2854 -236 1 -430 -6 -530 -18 -16 -2 -61 -7 -100
-10 -487 -43 -1149 -191 -1660 -370 -104 -37 -202 -69 -216 -72 -18 -3 -58 12
-136 51 -374 187 -870 351 -1307 431 -403 74 -887 101 -1301 74z"/>
<path d="M13199 51286 c-250 -42 -459 -123 -655 -254 -338 -227 -579 -580
-664 -971 -43 -195 -43 -241 -16 -1336 14 -566 28 -1133 31 -1260 3 -126 8
-329 11 -450 l5 -220 -271 -430 c-150 -236 -409 -648 -578 -915 -552 -874
-1042 -1638 -1495 -2327 -128 -195 -150 -223 -172 -223 l-26 0 4 -622 c3 -547
5 -632 21 -695 69 -292 182 -490 405 -713 235 -235 504 -391 841 -489 254 -73
443 -96 743 -88 238 5 383 26 575 82 l112 32 2 -41 c1 -22 2 -61 3 -86 1 -25
5 -180 9 -345 3 -165 8 -376 11 -470 11 -408 16 -584 30 -1150 8 -330 17 -688
20 -795 3 -107 75 -2987 160 -6400 418 -16731 496 -19765 509 -19846 79 -470
374 -864 816 -1093 183 -94 357 -147 562 -171 72 -8 2540 -6 9685 9 11540 25
11163 24 11268 44 344 65 609 197 838 416 224 216 365 464 429 756 23 106 32
463 42 1590 3 380 9 776 12 880 3 105 25 2202 49 4660 24 2459 47 4691 50
4960 9 889 164 16252 167 16653 l3 392 -96 34 c-498 173 -877 537 -1023 983
-69 210 -69 205 -73 896 -3 482 -7 627 -16 627 -13 0 -570 1105 -828 1640
-389 809 -673 1408 -1151 2430 -181 388 -463 989 -625 1335 -162 347 -301 645
-309 663 l-14 32 1314 0 c1286 0 1315 0 1379 -20 42 -13 79 -33 106 -58 40
-36 198 -284 1061 -1661 l335 -534 7 179 c3 98 11 755 18 1459 13 1388 13
1381 -40 1591 -75 298 -209 533 -430 755 -259 260 -563 413 -920 464 -117 16
844 10 -11980 70 -10174 48 -10146 48 -10251 31z m5619 -2291 c2 -1 -482
-1531 -1229 -3885 -60 -190 -241 -761 -402 -1270 l-294 -925 -29 -5 -29 -5 -3
-500 c-4 -549 5 -715 44 -876 140 -580 680 -1044 1389 -1192 171 -36 287 -47
504 -47 310 0 550 42 802 141 236 92 437 223 604 393 208 212 332 438 397 724
20 92 22 128 28 727 l6 630 37 215 c20 118 237 1482 482 3030 245 1548 448
2823 451 2833 5 16 79 17 1380 17 l1374 0 0 -3044 c0 -2771 -1 -3044 -16
-3050 -14 -5 -15 -64 -11 -599 4 -650 7 -683 68 -875 105 -328 350 -628 679
-833 255 -158 578 -266 897 -300 151 -15 528 -7 648 15 214 39 368 88 540 171
444 215 747 587 847 1040 29 136 38 321 38 873 0 439 2 502 15 502 8 0 15 4
15 8 0 10 3 -6 -545 3447 -223 1408 -408 2579 -412 2603 l-6 42 1378 -2 1379
-3 7 -25 c4 -14 254 -806 557 -1760 303 -954 605 -1908 672 -2120 67 -212 150
-475 185 -585 35 -110 163 -514 284 -897 l221 -697 0 -534 c0 -655 9 -767 80
-977 69 -208 182 -384 359 -560 279 -278 617 -445 1061 -525 146 -26 529 -32
698 -11 158 20 330 61 466 110 54 20 101 36 104 36 3 0 2 -435 -2 -967 -3
-533 -42 -6111 -86 -12398 -43 -6286 -81 -11612 -83 -11835 -6 -448 -11 -504
-72 -687 -68 -205 -173 -379 -324 -535 -223 -233 -496 -383 -825 -455 l-121
-26 -2455 -7 c-1350 -4 -5126 -11 -8390 -15 l-5935 -7 -119 21 c-334 59 -626
210 -861 446 -236 235 -369 496 -415 812 -7 52 -376 16638 -535 24098 -13 644
-27 1247 -31 1341 l-6 171 -96 39 c-334 135 -637 392 -802 681 -91 158 -155
343 -179 513 -6 44 -11 329 -11 685 l-2 610 222 470 c123 259 674 1420 1225
2580 551 1161 1091 2299 1200 2530 109 231 206 436 216 456 l18 37 1373 -5
c755 -3 1374 -7 1376 -8z"/>
<path d="M49725 41784 c-348 -52 -607 -184 -865 -443 -139 -140 -222 -248
-319 -413 -79 -137 -222 -414 -291 -568 -55 -119 -69 -142 -125 -197 -97 -95
-144 -159 -195 -268 -65 -137 -112 -179 -358 -318 -265 -150 -347 -211 -437
-327 -73 -95 -112 -193 -136 -340 -32 -204 -143 -372 -315 -475 -85 -51 -147
-72 -306 -100 -888 -160 -1494 -534 -1821 -1126 -205 -371 -294 -944 -208
-1336 96 -437 373 -712 851 -847 69 -20 168 -57 220 -83 79 -39 110 -62 185
-138 76 -75 99 -106 138 -185 82 -164 100 -288 71 -465 -61 -369 32 -650 299
-901 89 -84 237 -195 263 -198 11 -1 33 46 78 164 217 566 463 1030 662 1250
51 56 100 52 239 -17 216 -107 428 -345 583 -653 134 -265 199 -500 208 -750
5 -142 7 -149 60 -314 307 -945 353 -1939 138 -2961 -14 -66 -27 -134 -30
-150 -5 -25 -17 -36 -72 -66 -37 -19 -67 -40 -67 -45 0 -5 56 -63 125 -128
225 -213 424 -368 580 -450 l85 -45 65 55 c147 125 321 222 478 266 110 32
302 32 422 0 168 -44 399 -174 605 -339 117 -93 337 -298 426 -396 l62 -68
-1124 4 c-1209 4 -1158 2 -1454 58 -345 64 -739 194 -1063 349 l-125 60 -94
-93 c-246 -240 -428 -513 -512 -767 -17 -52 -47 -167 -66 -256 -58 -268 -100
-532 -265 -1655 -127 -871 -205 -1351 -305 -1899 -289 -1577 -617 -2699 -1021
-3490 -46 -90 -80 -167 -76 -171 20 -18 670 -161 1042 -229 124 -22 259 -47
300 -55 373 -71 1101 -157 1570 -185 624 -37 1320 -5 1735 80 l50 10 27 143
c107 570 1087 5720 1287 6768 74 385 95 527 107 722 l7 117 3241 0 c3565 0
3309 -4 3444 62 79 39 175 130 214 203 15 28 395 971 845 2095 l818 2045 0 95
c0 82 -4 103 -27 152 -34 73 -103 142 -176 176 l-57 27 -2340 3 c-2580 3
-2406 7 -2575 -59 -147 -56 -301 -179 -390 -308 -23 -34 -464 -947 -979 -2029
l-937 -1967 -546 -3 -545 -2 -12 142 c-7 79 -23 216 -37 306 -23 157 -81 462
-89 470 -2 2 9 38 25 81 666 1787 944 2559 1190 3301 135 406 208 650 236 789
24 123 15 350 -19 481 -39 148 -75 244 -152 395 -121 239 -267 454 -493 725
-124 148 -568 592 -742 741 -192 165 -410 339 -423 339 -14 0 -238 -61 -354
-96 l-81 -25 -7 -42 c-30 -179 -264 -369 -610 -495 -219 -79 -599 -162 -746
-162 -124 0 -159 26 -159 117 0 43 576 2666 615 2801 l16 52 -87 98 c-48 53
-93 111 -99 127 -7 17 -23 75 -36 130 -20 91 -28 108 -86 188 -136 191 -170
328 -108 447 34 65 152 138 239 147 108 11 220 -74 291 -221 19 -40 48 -91 65
-114 l29 -41 42 12 42 12 2 270 c1 249 4 279 27 385 75 336 215 540 443 645
143 66 321 89 513 65 l102 -12 135 -142 135 -141 30 35 c17 19 57 79 89 133
173 286 199 581 71 825 -136 260 -496 500 -875 583 -87 20 -357 34 -430 23z
m6892 -10820 c116 -42 194 -225 179 -424 -16 -208 -100 -403 -232 -535 -250
-250 -524 -108 -524 271 0 330 210 666 439 704 52 8 78 5 138 -16z"/>
<path d="M48070 12744 c-207 -135 -340 -383 -340 -632 0 -53 36 -300 105 -732
58 -360 105 -657 105 -662 0 -4 36 -8 80 -8 l80 0 1 98 c0 53 2 115 4 137 2
22 6 92 9 155 6 116 8 132 27 250 33 213 103 350 186 366 135 25 416 -225 820
-731 151 -188 208 -234 326 -260 62 -14 131 -16 457 -13 303 2 390 6 410 17
48 26 81 65 95 115 27 89 -4 170 -79 212 -50 28 -101 36 -237 35 l-109 0 -247
173 c-417 291 -888 611 -1088 739 -202 129 -281 197 -352 302 -80 119 -146
275 -175 415 -6 33 -15 60 -18 60 -3 0 -30 -16 -60 -36z"/>
<path d="M41455 12088 c-149 -173 -330 -532 -451 -894 -54 -162 -45 -256 36
-348 67 -76 121 -90 400 -106 277 -16 768 11 885 47 102 32 189 121 214 218
20 76 112 869 106 910 -3 22 -14 55 -24 74 l-18 34 -27 -143 c-15 -79 -36
-204 -47 -278 -11 -74 -26 -146 -34 -161 -15 -29 -76 -89 -115 -113 -42 -26
-163 -66 -252 -83 -124 -25 -404 -31 -497 -11 -184 39 -304 136 -346 280 -26
88 -15 144 57 289 83 167 157 327 153 327 -2 0 -20 -19 -40 -42z"/>
</g>
</svg>
