<svg width="20" height="20" viewBox="0 0 20 20" fill="none" xmlns="http://www.w3.org/2000/svg">
<path fill-rule="evenodd" clip-rule="evenodd" d="M14.4941 8C14.4941 11.3137 11.8078 14 8.49414 14C5.18043 14 2.49414 11.3137 2.49414 8C2.49414 4.68629 5.18043 2 8.49414 2C11.8078 2 14.4941 4.68629 14.4941 8ZM13.3343 14.3702C11.9904 15.3929 10.3132 16 8.49414 16C4.07586 16 0.494141 12.4183 0.494141 8C0.494141 3.58172 4.07586 0 8.49414 0C12.9124 0 16.4941 3.58172 16.4941 8C16.4941 9.87602 15.8484 11.6012 14.7671 12.9654L19.2624 18.3598C19.6159 18.7841 19.5586 19.4147 19.1343 19.7682C18.71 20.1218 18.0795 20.0645 17.7259 19.6402L13.3343 14.3702Z" fill="#9E9E9E"/>
</svg>
